<?xml version="1.0" encoding="UTF-8" standalone="no"?>
<!DOCTYPE svg PUBLIC "-//W3C//DTD SVG 1.1//EN" "http://www.w3.org/Graphics/SVG/1.1/DTD/svg11.dtd">
<!-- Generated by Microsoft Visio, SVG Export Phy_device_split.svg Page-1 -->
<svg xmlns="http://www.w3.org/2000/svg" xmlns:xlink="http://www.w3.org/1999/xlink" xmlns:ev="http://www.w3.org/2001/xml-events"
		xmlns:v="http://schemas.microsoft.com/visio/2003/SVGExtensions/" width="9.76378in" height="4.68504in"
		viewBox="0 0 702.992 337.323" xml:space="preserve" color-interpolation-filters="sRGB" class="st10">
	<v:documentProperties v:langID="1033" v:metric="true" v:viewMarkup="false">
		<v:userDefs>
			<v:ud v:nameU="msvSubprocessMaster" v:prompt="" v:val="VT4(Rectangle)"/>
			<v:ud v:nameU="msvNoAutoConnect" v:val="VT0(1):26"/>
		</v:userDefs>
	</v:documentProperties>

	<style type="text/css">
	<![CDATA[
		.st1 {fill:#ffffff;stroke:#000000;stroke-linecap:round;stroke-linejoin:round;stroke-width:0.75}
		.st2 {fill:#000000;font-family:Arial;font-size:1.16666em}
		.st3 {font-size:1em}
		.st4 {fill:none;stroke:#000000;stroke-linecap:round;stroke-linejoin:round;stroke-width:2.16}
		.st5 {stroke:#000000;stroke-linecap:round;stroke-linejoin:round;stroke-width:0.75}
		.st6 {fill:none;stroke:#ff0000;stroke-linecap:round;stroke-linejoin:round;stroke-opacity:0.3;stroke-width:2}
		.st7 {fill:#ffffff;stroke:none;stroke-linecap:butt;stroke-width:7.2}
		.st8 {fill:#ff0000;font-family:Arial;font-size:1.5em}
		.st9 {fill:#ffffff;stroke:#ffffff;stroke-linecap:round;stroke-linejoin:round;stroke-width:0.75}
		.st10 {fill:none;fill-rule:evenodd;font-size:12px;overflow:visible;stroke-linecap:square;stroke-miterlimit:3}
	]]>
	</style>

	<g v:mID="0" v:index="1" v:groupContext="foregroundPage">
		<title>Page-1</title>
		<v:pageProperties v:drawingScale="0.0393701" v:pageScale="0.0393701" v:drawingUnits="24" v:shadowOffsetX="8.50394"
				v:shadowOffsetY="-8.50394"/>
		<v:layer v:name="Annotations" v:index="0"/>
		<v:layer v:name="Connector" v:index="1"/>
		<g id="shape18-1" v:mID="18" v:groupContext="shape" transform="translate(494.544,-155.906)">
			<title>Sheet.18</title>
			<desc>Other baseband HW accelerators</desc>
			<v:textBlock v:margins="rect(4,4,4,4)" v:tabSpace="42.5197"/>
			<v:textRect cx="85.0394" cy="316.063" width="170.08" height="42.5197"/>
			<rect x="0" y="294.803" width="170.079" height="42.5197" class="st1"/>
			<text x="21.23" y="311.86" class="st2" v:langID="6153"><v:paragraph v:horizAlign="1"/><v:tabList/>Other baseband HW <tspan
						x="46.91" dy="1.2em" class="st3">accelerators</tspan></text>		</g>
		<g id="shape19-5" v:mID="19" v:groupContext="shape" transform="translate(494.544,-127.559)">
			<title>Sheet.19</title>
			<desc>Modem</desc>
			<v:textBlock v:margins="rect(4,4,4,4)" v:tabSpace="42.5197"/>
			<v:textRect cx="85.0394" cy="323.15" width="170.08" height="28.3465"/>
			<rect x="0" y="308.976" width="170.079" height="28.3465" class="st1"/>
			<text x="61.7" y="327.35" class="st2" v:langID="6153"><v:paragraph v:horizAlign="1"/><v:tabList/>Modem</text>		</g>
		<g id="shape20-8" v:mID="20" v:groupContext="shape" transform="translate(494.544,-198.425)">
			<title>Sheet.20</title>
			<desc>Protocol SW</desc>
			<v:textBlock v:margins="rect(4,4,4,4)" v:tabSpace="42.5197"/>
			<v:textRect cx="85.0394" cy="307.559" width="170.08" height="59.5276"/>
			<rect x="0" y="277.795" width="170.079" height="59.5276" class="st1"/>
			<text x="46.14" y="311.76" class="st2" v:langID="6153"><v:paragraph v:horizAlign="1"/><v:tabList/>Protocol SW</text>		</g>
		<g id="shape1-11" v:mID="1" v:groupContext="shape" transform="translate(28.3465,-170.079)">
			<title>Sheet.1</title>
			<desc>Other baseband HW accelerators</desc>
			<v:textBlock v:margins="rect(4,4,4,4)" v:tabSpace="42.5197"/>
			<v:textRect cx="85.0394" cy="316.063" width="170.08" height="42.5197"/>
			<rect x="0" y="294.803" width="170.079" height="42.5197" class="st1"/>
			<text x="21.23" y="311.86" class="st2" v:langID="6153"><v:paragraph v:horizAlign="1"/><v:tabList/>Other baseband HW <tspan
						x="46.91" dy="1.2em" class="st3">accelerators</tspan></text>		</g>
		<g id="shape2-15" v:mID="2" v:groupContext="shape" transform="translate(28.3465,-141.732)">
			<title>Sheet.2</title>
			<desc>Modem</desc>
			<v:textBlock v:margins="rect(4,4,4,4)" v:tabSpace="42.5197"/>
			<v:textRect cx="85.0394" cy="323.15" width="170.08" height="28.3465"/>
			<rect x="0" y="308.976" width="170.079" height="28.3465" class="st1"/>
			<text x="61.7" y="327.35" class="st2" v:langID="6153"><v:paragraph v:horizAlign="1"/><v:tabList/>Modem</text>		</g>
		<g id="shape3-18" v:mID="3" v:groupContext="shape" transform="translate(28.3465,-212.598)">
			<title>Sheet.3</title>
			<desc>Protocol SW</desc>
			<v:textBlock v:margins="rect(4,4,4,4)" v:tabSpace="42.5197"/>
			<v:textRect cx="85.0394" cy="307.559" width="170.08" height="59.5276"/>
			<rect x="0" y="277.795" width="170.079" height="59.5276" class="st1"/>
			<text x="46.14" y="311.76" class="st2" v:langID="6153"><v:paragraph v:horizAlign="1"/><v:tabList/>Protocol SW</text>		</g>
		<g id="shape6-21" v:mID="6" v:groupContext="shape" v:layerMember="0" transform="translate(240.945,-28.3465)">
			<title>Revision cloud</title>
			<desc>Shared medium</desc>
			<v:userDefs>
				<v:ud v:nameU="AntiScale" v:val="VT0(1):26"/>
				<v:ud v:nameU="visVersion" v:val="VT0(15):26"/>
			</v:userDefs>
			<v:textBlock v:margins="rect(0,0,0,0)" v:tabSpace="42.5197"/>
			<v:textRect cx="85.0394" cy="284.173" width="170.08" height="106.299"/>
			<path d="M6.5 279.79 A21.2285 16.5986 -180 0 0 16.74 307.97 A25.9343 20.2781 -180 0 0 56.58 325.58 A26.2427 20.5192 -180
						 0 0 102.84 327.32 A31.2064 24.4004 -180 0 0 151.33 306.9 A24.0984 18.8426 -180 0 0 162.52 274.82 A18.9043
						 14.7813 -180 0 0 147.6 251.49 A32.3313 25.2799 -180 0 0 91.65 242.74 A31.7739 24.8441 -180 0 0 35.7 245.66
						 A29.7616 23.2707 -180 0 0 6.5 279.79 Z" class="st4"/>
			<text x="35.63" y="288.37" class="st2" v:langID="6153"><v:paragraph v:horizAlign="1"/><v:tabList/>Shared medium</text>		</g>
		<g id="shape9-24" v:mID="9" v:groupContext="shape" v:layerMember="1" transform="translate(113.386,-141.732)">
			<title>Dynamic connector</title>
			<path d="M0 337.32 L0 397.56 L129.9 397.56" class="st5"/>
		</g>
		<g id="shape10-27" v:mID="10" v:groupContext="shape" transform="translate(488.577,-162.992)">
			<title>Sheet.10</title>
			<desc>Other baseband HW accelerators</desc>
			<v:textBlock v:margins="rect(4,4,4,4)" v:tabSpace="42.5197"/>
			<v:textRect cx="85.0394" cy="316.063" width="170.08" height="42.5197"/>
			<rect x="0" y="294.803" width="170.079" height="42.5197" class="st1"/>
			<text x="21.23" y="311.86" class="st2" v:langID="6153"><v:paragraph v:horizAlign="1"/><v:tabList/>Other baseband HW <tspan
						x="46.91" dy="1.2em" class="st3">accelerators</tspan></text>		</g>
		<g id="shape11-31" v:mID="11" v:groupContext="shape" transform="translate(488.577,-134.646)">
			<title>Sheet.11</title>
			<desc>Modem</desc>
			<v:textBlock v:margins="rect(4,4,4,4)" v:tabSpace="42.5197"/>
			<v:textRect cx="85.0394" cy="323.15" width="170.08" height="28.3465"/>
			<rect x="0" y="308.976" width="170.079" height="28.3465" class="st1"/>
			<text x="61.7" y="327.35" class="st2" v:langID="6153"><v:paragraph v:horizAlign="1"/><v:tabList/>Modem</text>		</g>
		<g id="shape12-34" v:mID="12" v:groupContext="shape" transform="translate(488.577,-205.512)">
			<title>Sheet.12</title>
			<desc>Protocol SW</desc>
			<v:textBlock v:margins="rect(4,4,4,4)" v:tabSpace="42.5197"/>
			<v:textRect cx="85.0394" cy="307.559" width="170.08" height="59.5276"/>
			<rect x="0" y="277.795" width="170.079" height="59.5276" class="st1"/>
			<text x="46.14" y="311.76" class="st2" v:langID="6153"><v:paragraph v:horizAlign="1"/><v:tabList/>Protocol SW</text>		</g>
		<g id="shape14-37" v:mID="14" v:groupContext="shape" transform="translate(481.89,-170.079)">
			<title>Sheet.14</title>
			<desc>Other baseband HW accelerators</desc>
			<v:textBlock v:margins="rect(4,4,4,4)" v:tabSpace="42.5197"/>
			<v:textRect cx="85.0394" cy="316.063" width="170.08" height="42.5197"/>
			<rect x="0" y="294.803" width="170.079" height="42.5197" class="st1"/>
			<text x="21.23" y="311.86" class="st2" v:langID="6153"><v:paragraph v:horizAlign="1"/><v:tabList/>Other baseband HW <tspan
						x="46.91" dy="1.2em" class="st3">accelerators</tspan></text>		</g>
		<g id="shape15-41" v:mID="15" v:groupContext="shape" transform="translate(481.89,-141.732)">
			<title>Sheet.15</title>
			<desc>Modem</desc>
			<v:textBlock v:margins="rect(4,4,4,4)" v:tabSpace="42.5197"/>
			<v:textRect cx="85.0394" cy="323.15" width="170.08" height="28.3465"/>
			<rect x="0" y="308.976" width="170.079" height="28.3465" class="st1"/>
			<text x="61.7" y="327.35" class="st2" v:langID="6153"><v:paragraph v:horizAlign="1"/><v:tabList/>Modem</text>		</g>
		<g id="shape16-44" v:mID="16" v:groupContext="shape" transform="translate(481.89,-212.598)">
			<title>Sheet.16</title>
			<desc>Protocol SW</desc>
			<v:textBlock v:margins="rect(4,4,4,4)" v:tabSpace="42.5197"/>
			<v:textRect cx="85.0394" cy="307.559" width="170.08" height="59.5276"/>
			<rect x="0" y="277.795" width="170.079" height="59.5276" class="st1"/>
			<text x="46.14" y="311.76" class="st2" v:langID="6153"><v:paragraph v:horizAlign="1"/><v:tabList/>Protocol SW</text>		</g>
		<g id="shape21-47" v:mID="21" v:groupContext="shape" v:layerMember="1" transform="translate(406.883,-100.63)">
			<title>Dynamic connector.21</title>
			<path d="M0 337.32 L160.05 337.32 L160.05 296.22" class="st5"/>
		</g>
		<g id="shape22-50" v:mID="22" v:groupContext="shape" v:layerMember="1" transform="translate(406.707,-87.8994)">
			<title>Dynamic connector.22</title>
			<path d="M0 337.32 L166.91 337.32 L166.91 290.58" class="st5"/>
		</g>
		<g id="shape23-53" v:mID="23" v:groupContext="shape" v:layerMember="1" transform="translate(410.836,-74.7908)">
			<title>Dynamic connector.23</title>
			<path d="M0 337.32 L168.75 337.32 L168.75 284.55" class="st5"/>
		</g>
		<g id="shape24-56" v:mID="24" v:groupContext="shape" transform="translate(11.3386,-5.66929)">
			<title>Sheet.24</title>
			<desc>BabbleSim Phy</desc>
			<v:textBlock v:margins="rect(4,4,4,4)" v:tabSpace="42.5197" v:verticalAlign="0"/>
			<v:textRect cx="336.827" cy="251.761" width="673.66" height="171.123"/>
			<rect x="0" y="166.2" width="673.654" height="171.123" rx="2.83465" ry="2.83465" class="st6"/>
			<rect v:rectContext="textBkgnd" x="275.295" y="170.2" width="123.064" height="21.5999" class="st7"/>
			<text x="275.29" y="186.4" class="st8" v:langID="6153"><v:paragraph v:horizAlign="1"/><v:tabList/>BabbleSim Phy</text>		</g>
		<g id="group28-60" transform="translate(-135.496,82.4882) rotate(-90)" v:mID="28" v:groupContext="group">
			<title>Hidding Cut</title>
			<g id="shape29-61" v:mID="29" v:groupContext="shape">
				<title>Sheet.29</title>
				<path d="M4.81 161.57 L19.56 161.57 L18.43 337.32 L4.81 337.32 A75.4486 37.5487 -90 0 0 4.61 248.05 A51.5368 103.556
							 0 0 1 4.81 161.57 Z" class="st9"/>
			</g>
			<g id="shape30-63" v:mID="30" v:groupContext="shape">
				<title>Sheet.30</title>
				<path d="M4.81 161.57 A51.5368 104.909 -180 0 0 5.87 254.45 A35.3154 71.8888 0 0 1 4.81 337.32" class="st5"/>
			</g>
		</g>
		<g id="group31-66" transform="translate(816.378,87.5906) rotate(90) scale(-1,1)" v:mID="31" v:groupContext="group">
			<title>Hidding Cut.31</title>
			<g id="shape32-67" v:mID="32" v:groupContext="shape">
				<title>Sheet.32</title>
				<path d="M6.2 147.4 L25.23 147.4 L23.77 337.32 L6.2 337.32 A81.5332 48.4323 -90 0 0 5.95 240.85 A66.475 111.907 0
							 0 1 6.2 147.4 Z" class="st9"/>
			</g>
			<g id="shape33-69" v:mID="33" v:groupContext="shape">
				<title>Sheet.33</title>
				<path d="M6.2 147.4 A66.475 113.37 -180 0 0 7.57 247.76 A45.5517 77.6862 0 0 1 6.2 337.32" class="st5"/>
			</g>
		</g>
		<g id="shape37-72" v:mID="37" v:groupContext="shape" transform="translate(11.3386,-176.808)">
			<title>Sheet.37</title>
			<desc>Simulated device n</desc>
			<v:textBlock v:margins="rect(4,4,4,4)" v:tabSpace="42.5197" v:verticalAlign="0"/>
			<v:textRect cx="99.2126" cy="261.813" width="198.43" height="151.019"/>
			<rect x="0" y="186.304" width="198.425" height="151.019" rx="2.83465" ry="2.83465" class="st6"/>
			<rect v:rectContext="textBkgnd" x="23.1696" y="190.304" width="152.086" height="21.5999" class="st7"/>
			<text x="23.17" y="206.5" class="st8" v:langID="6153"><v:paragraph v:horizAlign="1"/><v:tabList/>Simulated device n</text>		</g>
	</g>
</svg>
